{
  "accessors": [
    {
      "bufferView": 2,
      "componentType": 5126,
      "count": 5308,
      "max": [
        0.9423900246620178,
        0.040720000863075256,
        0.18719400465488434
      ],
      "min": [
        -0.5648239850997925,
        -1.842993974685669,
        -0.19354300200939178
      ],
      "type": "VEC3",
      "byteOffset": 0
    },
    {
      "bufferView": 2,
      "byteOffset": 63696,
      "componentType": 5126,
      "count": 5308,
      "max": [
        1,
        0.9998652935028076,
        0.9999998807907104
      ],
      "min": [
        -1,
        -0.9999117851257324,
        -0.9999998807907104
      ],
      "type": "VEC3"
    },
    {
      "bufferView": 1,
      "componentType": 5126,
      "count": 5308,
      "max": [
        1.9963619709014893,
        -1.00382399559021
      ],
      "min": [
        0.002604000037536025,
        -1.9942309856414795
      ],
      "type": "VEC2",
      "byteOffset": 0
    },
    {
      "bufferView": 0,
      "componentType": 5125,
      "count": 18828,
      "type": "SCALAR",
      "byteOffset": 0
    },
    {
      "bufferView": 2,
      "byteOffset": 127392,
      "componentType": 5126,
      "count": 6102,
      "max": [
        0.3824310004711151,
        0.00001700000029813964,
        0.34848201274871826
      ],
      "min": [
        -0.4110179841518402,
        -1.6425329446792603,
        -0.1922129988670349
      ],
      "type": "VEC3"
    },
    {
      "bufferView": 2,
      "byteOffset": 200616,
      "componentType": 5126,
      "count": 6102,
      "max": [
        0.9996708035469055,
        1,
        0.9999886751174927
      ],
      "min": [
        -0.9996557831764221,
        -0.9997749328613281,
        -0.9998699426651001
      ],
      "type": "VEC3"
    },
    {
      "bufferView": 3,
      "componentType": 5126,
      "count": 6102,
      "max": [
        0.9999725222587585,
        0.9999098777770996,
        0.9998707175254822,
        1
      ],
      "min": [
        -0.9999725222587585,
        -0.9987363219261169,
        -0.9999710321426392,
        -1
      ],
      "type": "VEC4",
      "byteOffset": 0
    },
    {
      "bufferView": 1,
      "byteOffset": 42464,
      "componentType": 5126,
      "count": 6102,
      "max": [
        0.9963110089302063,
        -1.0067909955978394
      ],
      "min": [
        0.0036989999935030937,
        -1.99651300907135
      ],
      "type": "VEC2"
    },
    {
      "bufferView": 0,
      "byteOffset": 75312,
      "componentType": 5125,
      "count": 20892,
      "type": "SCALAR"
    }
  ],
  "asset": {
    "extras": {
      "author": "shouryahaldkar (https://sketchfab.com/shouryahaldkar)",
      "license": "CC-BY-4.0 (http://creativecommons.org/licenses/by/4.0/)",
      "source": "https://sketchfab.com/3d-models/hero-character-756a2b3ceeda4190870f6bd860bca5cb",
      "title": "Hero character"
    },
    "generator": "Sketchfab-13.74.0",
    "version": "2.0"
  },
  "bufferViews": [
    {
      "buffer": 0,
      "byteLength": 158880,
      "name": "floatBufferViews",
      "target": 34963,
      "byteOffset": 0
    },
    {
      "buffer": 0,
      "byteLength": 91280,
      "byteOffset": 158880,
      "byteStride": 8,
      "name": "floatBufferViews",
      "target": 34962
    },
    {
      "buffer": 0,
      "byteLength": 273840,
      "byteOffset": 250160,
      "byteStride": 12,
      "name": "floatBufferViews",
      "target": 34962
    },
    {
      "buffer": 0,
      "byteLength": 97632,
      "byteOffset": 524000,
      "byteStride": 16,
      "name": "floatBufferViews",
      "target": 34962
    },
    {
      "buffer": 0,
      "byteOffset": 621632,
      "byteLength": 564451
    },
    {
      "buffer": 0,
      "byteOffset": 1186088,
      "byteLength": 110967
    },
    {
      "buffer": 0,
      "byteOffset": 1297056,
      "byteLength": 179078
    }
  ],
  "buffers": [
    {
      "name": "personaje",
      "byteLength": 1476136,
      "uri": "data:application/octet-stream;base64,"
    }
  ],
  "images": [
    {
      "name": "war2txt_alucard03_d_baseColor",
      "bufferView": 4,
      "mimeType": "image/jpeg"
    },
    {
      "name": "war2txt_alucard03_d1_baseColor",
      "bufferView": 5,
      "mimeType": "image/png"
    },
    {
      "name": "war2txt_alucard03_d1_normal",
      "bufferView": 6,
      "mimeType": "image/png"
    }
  ],
  "materials": [
    {
      "doubleSided": true,
      "name": "war2txt_alucard03_d",
      "pbrMetallicRoughness": {
        "baseColorTexture": {
          "index": 0,
          "texCoord": 0
        },
        "metallicFactor": 0,
        "roughnessFactor": 0.6,
        "baseColorFactor": [
          1,
          1,
          1,
          1
        ]
      },
      "emissiveFactor": [
        0,
        0,
        0
      ],
      "alphaMode": "OPAQUE"
    },
    {
      "doubleSided": true,
      "name": "war2txt_alucard03_d1",
      "normalTexture": {
        "index": 2,
        "texCoord": 0
      },
      "pbrMetallicRoughness": {
        "baseColorTexture": {
          "index": 1,
          "texCoord": 0
        },
        "metallicFactor": 0,
        "roughnessFactor": 0.6,
        "baseColorFactor": [
          1,
          1,
          1,
          1
        ]
      },
      "emissiveFactor": [
        0,
        0,
        0
      ],
      "alphaMode": "OPAQUE"
    }
  ],
  "meshes": [
    {
      "name": "Object_0",
      "primitives": [
        {
          "attributes": {
            "NORMAL": 1,
            "POSITION": 0,
            "TEXCOORD_0": 2
          },
          "indices": 3,
          "material": 0,
          "mode": 4
        }
      ]
    },
    {
      "name": "Object_1",
      "primitives": [
        {
          "attributes": {
            "NORMAL": 5,
            "POSITION": 4,
            "TANGENT": 6,
            "TEXCOORD_0": 7
          },
          "indices": 8,
          "material": 1,
          "mode": 4
        }
      ]
    }
  ],
  "nodes": [
    {
      "children": [
        1
      ],
      "matrix": [
        1,
        -4.8033446892643715e-32,
        1.6081226229577292e-16,
        0,
        1.232595164407831e-32,
        -1,
        -4.440892098500626e-16,
        0,
        1.6081226229577292e-16,
        4.440892098500626e-16,
        -1,
        0,
        0,
        0,
        0,
        1
      ],
      "name": "Sketchfab_model"
    },
    {
      "children": [
        2,
        3
      ],
      "name": "hero_alucard_skin03_high_add.obj.cleaner.materialmerger.gles"
    },
    {
      "mesh": 0,
      "name": "Object_2"
    },
    {
      "mesh": 1,
      "name": "Object_3"
    }
  ],
  "samplers": [
    {
      "magFilter": 9729,
      "minFilter": 9987,
      "wrapS": 10497,
      "wrapT": 10497
    }
  ],
  "scene": 0,
  "scenes": [
    {
      "name": "Sketchfab_Scene",
      "nodes": [
        0
      ]
    }
  ],
  "textures": [
    {
      "sampler": 0,
      "source": 0
    },
    {
      "sampler": 0,
      "source": 1
    },
    {
      "sampler": 0,
      "source": 2
    }
  ]
}
